# xmcd CD database file
#
# Track frame offsets:
#	150
#	19809
#	36765
#	58200
#	71675
#	88253
#	114346
#	133521
#	148476
#	171096
#	188633
#	206573
#	225285
#	244952
#	273921
#	286601
#
# Disc length: 3992 seconds
#
# Revision: 0
# Processed by: cddbd v1.5.2PL0 Copyright (c) Steve Scherf et al.
# Submitted via: CDex 1.70beta2
#
DISCID=e80f9610
DTITLE=Various Artist - Blaue Stunde 2
DYEAR=2007
DGENRE=Jazz
TTITLE0=2raumwohnung - Liebe
TTITLE1=Nylon - Die Nacht war blau
TTITLE2=Michel van Dyke - Wach werden
TTITLE3=Jasmin Wagner - Wahrscheinlich Hallo
TTITLE4=Die Zöllner - Strohfeuer
TTITLE5=Ulla Meinecke - Die Tänzerin
TTITLE6=Erdmöbel - Ich weine
TTITLE7=Keinzeit - Maggie
TTITLE8=Götz Alsmann - Eine blaue Stunde
TTITLE9=Klaus Hoffmann - Ich will leben
TTITLE10=Udo Lindenberg - Wir woll'n doch einfach nur zusammensein
TTITLE11=Sara Lorenz - Frühling
TTITLE12=Pe Werner /Du bist ein Zauberer
TTITLE13=Hildegard Knef - Ich war nie in Las Vegas
TTITLE14=Caterina Valente - Wo wir etwas finden, das wie die Musik ist
TTITLE15=Bobo - Der schwere Traum
EXTD=YEAR: 2007
EXTT0=
EXTT1=
EXTT2=
EXTT3=
EXTT4=
EXTT5=
EXTT6=
EXTT7=
EXTT8=
EXTT9=
EXTT10=
EXTT11=
EXTT12=
EXTT13=
EXTT14=
EXTT15=
PLAYORDER=
